<svg xmlns="http://www.w3.org/2000/svg" viewBox="0 0 83 37.069" class="sc-1gdnhxa-2 dVMCCn"><title>PlayHQ</title><path fill="#009ffd" d="M82.82 7.526l-.147 1.286a38.343 38.343 0 00-35.277-1.26V7.5A38.22 38.22 0 0163.524.567c.5-.085.984-.138 1.476-.207a38.229 38.229 0 0117.966 1.813 39.393 39.393 0 01-.146 5.353z"/><path fill="#be33ff" d="M47.393 7.504c-.052.039-.1.08-.154.119.052-.025.106-.046.159-.071zM64.999.362c-.492.069-.976.122-1.476.207a38.22 38.22 0 00-16.128 6.933 38.537 38.537 0 01-.147-5.292A38.15 38.15 0 0164.999.362z"/><path fill="#fff" d="M12.425 10.628a4.334 4.334 0 011.277 3.293q0 .24-.047.811a5.984 5.984 0 01-1.027 2.745 5.563 5.563 0 01-2.159 1.837 6.7 6.7 0 01-2.971.644H4.682q-.094 0-.142.119l-.692 5.752a.389.389 0 01-.107.2.273.273 0 01-.2.084H.248a.234.234 0 01-.191-.084.225.225 0 01-.047-.2L1.99 9.698a.385.385 0 01.108-.2.277.277 0 01.2-.083h6.681a4.792 4.792 0 013.446 1.213zm-3.257 5.536a2.22 2.22 0 00.668-1.671 1.577 1.577 0 00-.514-1.229A1.961 1.961 0 007.95 12.8H5.565c-.065 0-.112.04-.144.118l-.453 3.77c-.032.08 0 .119.1.119h2.386a2.375 2.375 0 001.715-.643zM13.591 26.031a.226.226 0 01-.048-.2L15.524 9.7a.383.383 0 01.107-.2.277.277 0 01.2-.083h3.293a.243.243 0 01.192.083.229.229 0 01.047.2l-1.981 16.131a.388.388 0 01-.107.2.271.271 0 01-.2.084h-3.293a.236.236 0 01-.191-.084zM27.979 13.862a.276.276 0 01.2-.084h3.294a.241.241 0 01.191.084.23.23 0 01.048.2l-1.456 11.764a.394.394 0 01-.107.2.273.273 0 01-.2.084h-3.293a.233.233 0 01-.191-.084.223.223 0 01-.048-.2l.12-.907a.108.108 0 00-.036-.095c-.024-.016-.06 0-.108.048a3.552 3.552 0 01-2.934 1.433 3.775 3.775 0 01-2.637-.99 4.528 4.528 0 01-1.372-2.686 6.133 6.133 0 01-.1-1.146 12.344 12.344 0 01.119-1.575 8.949 8.949 0 01.836-3.054 5.907 5.907 0 011.957-2.351 4.889 4.889 0 012.911-.918 2.584 2.584 0 012.458 1.217c.032.047.063.064.095.047a.1.1 0 00.048-.095l.095-.692a.387.387 0 01.11-.2zm-.848 6.1a8.128 8.128 0 00.073-.977 3.079 3.079 0 00-.144-.979 1.465 1.465 0 00-.489-.751 1.358 1.358 0 00-.87-.275 1.732 1.732 0 00-.979.287 2.1 2.1 0 00-.692.787 5.178 5.178 0 00-.548 1.909 6.726 6.726 0 00-.047.906 3.2 3.2 0 00.119.979 1.534 1.534 0 00.513.776 1.415 1.415 0 00.919.3 1.773 1.773 0 001.622-1.1 4.456 4.456 0 00.523-1.866zM31.57 30.577l.334-2.674a.394.394 0 01.106-.2.259.259 0 01.18-.084 6.241 6.241 0 002.16-.274 1.659 1.659 0 00.943-1.158.338.338 0 00.023-.143L33.049 14.09v-.072a.261.261 0 01.072-.192.258.258 0 01.191-.071h3.507a.237.237 0 01.263.238l.74 7.063c0 .064.02.095.06.095s.067-.031.083-.095l2.458-7.063a.338.338 0 01.334-.238h3.413a.232.232 0 01.2.084.257.257 0 01-.013.25l-5.416 12.265a13.019 13.019 0 01-1.552 2.707 4.32 4.32 0 01-2 1.362 11.1 11.1 0 01-3.508.44h-.167q-.144 0-.144-.286zM63.808 3.857a38.149 38.149 0 00-16.412 3.7c-.052.027-.1.044-.155.069-.777.38-1.545.768-2.288 1.192A38.129 38.129 0 0050.01 23.45l1.688-13.746a.262.262 0 01.095-.2.319.319 0 01.216-.083h3.268c.175 0 .263.095.263.286l-.764 6.156c0 .08.032.12.1.12h4.343a.116.116 0 00.084-.036.113.113 0 00.035-.084l.764-6.156a.389.389 0 01.107-.2.278.278 0 01.2-.083h3.294a.238.238 0 01.19.083.227.227 0 01.048.2L61.96 25.838a.388.388 0 01-.108.2.269.269 0 01-.2.084H58.36a.238.238 0 01-.192-.084.228.228 0 01-.047-.2l.763-6.347c.032-.079 0-.119-.095-.119h-4.318c-.064 0-.111.04-.144.119l-1.04 8.61a38.494 38.494 0 0010.526 8.978 37.946 37.946 0 0011.323-10l-1.692-1.7c-.12.07-.217.167-.343.23a7.431 7.431 0 01-3.413.775 5.676 5.676 0 01-4.079-1.431 5.086 5.086 0 01-1.5-3.866 6.918 6.918 0 01.048-.93l.6-4.773a7 7 0 011.182-3.21 6.665 6.665 0 012.48-2.17 7.3 7.3 0 013.377-.776 6.484 6.484 0 012.982.645 4.593 4.593 0 011.945 1.825 5.425 5.425 0 01.679 2.756 6.627 6.627 0 01-.047.931l-.573 4.773a7.684 7.684 0 01-.421 1.786l1.2 1.2c.023.023.079.074.145.134a37.843 37.843 0 004.982-14.454 38.206 38.206 0 00-18.88-4.967z"/><path fill="#fff" d="M69.504 13.361a3.161 3.161 0 00-.919 1.969l-.6 4.939a3.73 3.73 0 00-.023.477 2.273 2.273 0 00.572 1.646 2.046 2.046 0 001.551.6 2.628 2.628 0 001.9-.752 3.166 3.166 0 00.919-1.969l.62-4.939a2.875 2.875 0 00.024-.43 2.334 2.334 0 00-.585-1.67 2.075 2.075 0 00-1.587-.621 2.593 2.593 0 00-1.872.75z"/></svg>